<?xml version="1.0" encoding="UTF-8" standalone="no"?><!-- Generator: Gravit.io --><svg xmlns="http://www.w3.org/2000/svg" xmlns:xlink="http://www.w3.org/1999/xlink" style="isolation:isolate" viewBox="0 0 560 315" width="560pt" height="315pt"><defs><clipPath id="_clipPath_gEIITsIpJjELtA4COZrsaEatiSmgrQip"><rect width="560" height="315"/></clipPath></defs><g clip-path="url(#_clipPath_gEIITsIpJjELtA4COZrsaEatiSmgrQip)"><g><path d=" M 143.849 157.5 L 125.499 147.904 L 106.767 156.809 L 110.713 137.282 L 96 123.126 L 116.789 120.654 L 126.428 103 L 135.33 120.999 L 156 124.244 L 140.713 137.841 L 143.849 157.5 Z " fill="rgb(36,183,36)"/><path d=" M 213.849 157.5 L 195.499 147.904 L 176.767 156.809 L 180.713 137.282 L 166 123.126 L 186.789 120.654 L 196.428 103 L 205.33 120.999 L 226 124.244 L 210.713 137.841 L 213.849 157.5 Z " fill="rgb(36,183,36)"/><path d=" M 423.849 157.5 L 405.499 147.904 L 386.767 156.809 L 390.713 137.282 L 376 123.126 L 396.789 120.654 L 406.428 103 L 415.33 120.999 L 436 124.244 L 420.713 137.841 L 423.849 157.5 Z " fill="rgb(36,183,36)"/><path d=" M 353.849 157.5 L 335.499 147.904 L 316.767 156.809 L 320.713 137.282 L 306 123.126 L 326.789 120.654 L 336.428 103 L 345.33 120.999 L 366 124.244 L 350.713 137.841 L 353.849 157.5 Z " fill="rgb(36,183,36)"/><path d=" M 283.849 157.5 L 265.499 147.904 L 246.767 156.809 L 250.713 137.282 L 236 123.126 L 256.789 120.654 L 266.428 103 L 275.33 120.999 L 296 124.244 L 280.713 137.841 L 283.849 157.5 Z " fill="rgb(36,183,36)"/></g></g></svg>